<svg xmlns="http://www.w3.org/2000/svg" viewBox="0 0 32 32">
  <path d="M16 6c2-3 6-3 8-2-1 3-3 4-5 4 3 1 5 4 5 8 0 5-4 10-8 12-4-2-8-7-8-12 0-4 2-7 5-8-2 0-4-1-5-4 2-1 6-1 8 2z" fill="#D6324B"/>
  <path d="M16 4c1-1 3-1 4-1 0 0-1 3-4 3-3 0-4-3-4-3 1 0 3 0 4 1z" fill="#4E7A34"/>
  <g fill="#F2D27A"><circle cx="12" cy="14" r="0.9"/><circle cx="16" cy="13" r="0.9"/><circle cx="20" cy="14" r="0.9"/><circle cx="14" cy="18" r="0.9"/><circle cx="18" cy="18" r="0.9"/><circle cx="16" cy="22" r="0.9"/></g>
</svg>
